<svg width="18" height="20" viewBox="0 0 18 20" fill="none" xmlns="http://www.w3.org/2000/svg">
<path d="M17.62 6.34451C16.57 1.96964 12.54 0 8.99997 0C8.99997 0 8.99997 0 8.98997 0C5.45997 0 1.41997 1.96017 0.369973 6.33504C-0.800027 11.2213 2.35997 15.3594 5.21997 17.9635C6.27997 18.9294 7.63997 19.4123 8.99997 19.4123C10.36 19.4123 11.72 18.9294 12.77 17.9635C15.63 15.3594 18.79 11.2307 17.62 6.34451ZM8.99997 11.0887C7.25997 11.0887 5.84997 9.75351 5.84997 8.10583C5.84997 6.45815 7.25997 5.12296 8.99997 5.12296C10.74 5.12296 12.15 6.45815 12.15 8.10583C12.15 9.75351 10.74 11.0887 8.99997 11.0887Z" fill="#95E9D4"/>
</svg>
